<?xml version="1.0" encoding="UTF-8" standalone="no"?>
<!-- Created with Inkscape (http://www.inkscape.org/) -->

<svg
   version="1.1"
   id="svg1"
   width="790.32556"
   height="1116.2791"
   viewBox="0 0 790.32556 1116.2791"
   sodipodi:docname="star.svg"
   inkscape:version="1.3.2 (091e20e, 2023-11-25)"
   xmlns:inkscape="http://www.inkscape.org/namespaces/inkscape"
   xmlns:sodipodi="http://sodipodi.sourceforge.net/DTD/sodipodi-0.dtd"
   xmlns="http://www.w3.org/2000/svg"
   xmlns:svg="http://www.w3.org/2000/svg">
  <defs
     id="defs1" />
  <sodipodi:namedview
     id="namedview1"
     pagecolor="#ffffff"
     bordercolor="#000000"
     borderopacity="0.25"
     inkscape:showpageshadow="2"
     inkscape:pageopacity="0.0"
     inkscape:pagecheckerboard="0"
     inkscape:deskcolor="#d1d1d1"
     inkscape:zoom="1.2550625"
     inkscape:cx="394.80105"
     inkscape:cy="558.13953"
     inkscape:window-width="1920"
     inkscape:window-height="1061"
     inkscape:window-x="0"
     inkscape:window-y="0"
     inkscape:window-maximized="1"
     inkscape:current-layer="g1" />
  <g
     inkscape:groupmode="layer"
     inkscape:label="Image"
     id="g1">
    <path
       style="fill:#fcde62"
       d="m 477.85852,862.83194 c 0.8384,-2.20179 2.08676,-3.44086 2.77413,-2.75348 0.68738,0.68737 10e-4,2.48884 -1.52435,4.00326 -2.20491,2.1885 -2.46135,1.93206 -1.24978,-1.24978 z"
       id="path7" />
    <g
       id="g8"
       transform="translate(-189.17447,-138.19655)">
      <path
         style="fill:#fdd410"
         d="m 493.92576,836.69567 c 6.08562,-10.43721 40.98728,-71.2186 77.55926,-135.06976 36.57197,-63.85117 67.51426,-117.39142 68.76063,-118.97834 1.35839,-1.72954 3.0785,-2.07295 4.29416,-0.8573 1.21565,1.21565 -2.49811,12.13858 -9.27116,27.26838 -6.21455,13.88219 -10.85548,25.68405 -10.31318,26.22635 0.5423,0.5423 10.13524,-6.77639 21.31765,-16.26374 11.18241,-9.48736 20.67497,-16.88483 21.09458,-16.43883 0.75943,0.8072 -177.74402,246.60321 -182.17918,250.85743 -1.28013,1.2279 2.65163,-6.30698 8.73724,-16.74419 z"
         id="path5" />
      <path
         style="fill:#ae0128;stroke:#ffd50f;stroke-width:2.2;stroke-dasharray:none;stroke-opacity:1"
         d="m 624.08447,631.44153 c 1.68839,-4.03747 6.67637,-15.25232 11.0844,-24.9219 4.40804,-9.66957 8.01461,-18.22908 8.01461,-19.02113 0,-0.79204 -10.00657,-7.40423 -22.23682,-14.69376 -12.23025,-7.28952 -22.00789,-13.48261 -21.72808,-13.76241 0.2798,-0.27981 12.38364,0.19163 26.89741,1.04764 14.51377,0.85602 26.66614,1.04117 27.00527,0.41146 0.33912,-0.62972 3.51627,-11.94142 7.06033,-25.13712 3.54406,-13.1957 7.06883,-23.9957 7.83283,-24 0.76399,-0.004 1.99297,3.76872 2.73106,8.38449 0.73809,4.61576 3.01167,15.78588 5.05239,24.82248 l 3.7104,16.43018 20.34923,-1.48951 c 11.19208,-0.81923 23.86551,-2.02776 28.16319,-2.68563 6.45466,-0.98805 3.63898,1.39495 -16.18605,13.69876 -13.2,8.19219 -24,15.74116 -24,16.77549 0,1.03433 4.0186,12.19234 8.93023,24.79556 4.91163,12.60323 8.93023,23.2946 8.93023,23.75859 0,0.464 -8.99623,-6.85043 -19.99164,-16.25427 -13.06993,-11.1781 -20.99296,-16.50292 -22.88372,-15.37944 -1.59064,0.94516 -11.6475,9.10813 -22.34857,18.13992 -17.9619,15.16 -19.22068,15.85755 -16.3867,9.0806 z"
         id="path2" />
    </g>
  </g>
</svg>
